Coordinates
version=1
nRows=32
nColumns=38
inDegrees=no

Units are S.I. units (second, meters, Newtons, ...)
If the header above contains a line with 'inDegrees', this indicates whether rotational values are in degrees (yes) or radians (no).

endheader
time	pelvis_tilt	pelvis_list	pelvis_rotation	pelvis_tx	pelvis_ty	pelvis_tz	hip_flexion_r	hip_adduction_r	hip_rotation_r	knee_angle_r	ankle_angle_r	subtalar_angle_r	mtp_angle_r	hip_flexion_l	hip_adduction_l	hip_rotation_l	knee_angle_l	ankle_angle_l	subtalar_angle_l	mtp_angle_l	lumbar_extension	lumbar_bending	lumbar_rotation	arm_flex_r	arm_add_r	arm_rot_r	elbow_flex_r	pro_sup_r	wrist_flex_r	wrist_dev_r	arm_flex_l	arm_add_l	arm_rot_l	elbow_flex_l	pro_sup_l	wrist_flex_l	wrist_dev_l
0.19175	-0.0339509	0.101565	-0.0833657	0.119362	0.98394	-0.0097405	0.445951	-0.212192	-0.0454909	1.33939	0.10323	-0.151979	0.066483	0.136625	0.0452644	-0.308894	0.696238	0.421715	0.180107	-0.00081545	-0.291864	-0.171208	-0.0301992	-0.382519	-0.176953	-0.168722	1.60503	1.19604	-0.00710616	0.0942231	-0.0381459	-0.348908	-0.14476	2.00068	1.17774	0.0404224	0.0986384
0.192749	-0.034876	0.101016	-0.0835365	0.119379	0.984341	-0.00975822	0.448757	-0.211026	-0.0456913	1.33602	0.103791	-0.151209	0.0664159	0.134032	0.0452577	-0.308678	0.693107	0.418958	0.180205	0.0018175	-0.290812	-0.170008	-0.0302139	-0.385588	-0.175494	-0.171247	1.60505	1.19598	-0.00708374	0.0942027	-0.03574	-0.348942	-0.143886	2.00139	1.17805	0.0403928	0.0986201
0.193747	-0.0357962	0.100456	-0.0837082	0.119401	0.984751	-0.00977465	0.451515	-0.209843	-0.0459045	1.33256	0.10433	-0.150398	0.0663591	0.131422	0.0452429	-0.308459	0.689943	0.416126	0.180289	0.00447953	-0.289758	-0.168798	-0.0302217	-0.38865	-0.174042	-0.173767	1.60508	1.19592	-0.00706133	0.0941824	-0.0333657	-0.348956	-0.143014	2.00211	1.17836	0.0403632	0.0986018
0.194746	-0.0367111	0.099886	-0.083881	0.119426	0.985171	-0.0097898	0.454223	-0.208644	-0.0461301	1.32899	0.104845	-0.149545	0.0663124	0.128794	0.0452201	-0.308235	0.686746	0.41322	0.180357	0.00716973	-0.288702	-0.167575	-0.0302229	-0.391704	-0.172596	-0.17628	1.60513	1.19586	-0.00703891	0.094162	-0.0310237	-0.34895	-0.142144	2.00284	1.17867	0.0403335	0.0985835
0.195745	-0.0376202	0.0993057	-0.0840547	0.119455	0.9856	-0.00980365	0.45688	-0.207431	-0.0463682	1.32533	0.105336	-0.148651	0.0662759	0.12615	0.0451895	-0.308006	0.683517	0.410239	0.180412	0.00988712	-0.287645	-0.166342	-0.0302181	-0.394751	-0.171157	-0.178786	1.6052	1.19579	-0.0070165	0.0941416	-0.0287143	-0.348923	-0.141278	2.00358	1.17898	0.0403039	0.0985652
0.196743	-0.0385232	0.0987156	-0.0842294	0.119488	0.986038	-0.0098162	0.459488	-0.206202	-0.0466184	1.32156	0.105804	-0.147714	0.0662494	0.123488	0.0451514	-0.307773	0.680257	0.407186	0.180451	0.0126307	-0.286586	-0.165099	-0.0302077	-0.397789	-0.169724	-0.181284	1.60529	1.19572	-0.00699408	0.0941212	-0.0264379	-0.348878	-0.140414	2.00433	1.17929	0.0402743	0.0985469
0.197742	-0.0394198	0.0981159	-0.0844051	0.119525	0.986484	-0.00982744	0.462043	-0.204959	-0.0468807	1.31769	0.106248	-0.146735	0.0662329	0.12081	0.045106	-0.307536	0.676968	0.404059	0.180476	0.0153995	-0.285527	-0.163846	-0.0301922	-0.400818	-0.168299	-0.183775	1.60539	1.19565	-0.00697167	0.0941008	-0.0241951	-0.348812	-0.139553	2.00509	1.17961	0.0402447	0.0985286
0.198741	-0.0403095	0.0975069	-0.0845817	0.119566	0.98694	-0.00983738	0.464548	-0.203703	-0.0471548	1.31373	0.106668	-0.145714	0.0662261	0.118116	0.0450534	-0.307295	0.67365	0.40086	0.180486	0.0181924	-0.284468	-0.162583	-0.030172	-0.403837	-0.16688	-0.186256	1.6055	1.19558	-0.00694925	0.0940804	-0.0219861	-0.348728	-0.138696	2.00586	1.17992	0.0402151	0.0985103
0.199739	-0.041192	0.096889	-0.0847593	0.119611	0.987403	-0.00984601	0.467	-0.202434	-0.0474406	1.30967	0.107064	-0.14465	0.066229	0.115405	0.044994	-0.307049	0.670304	0.39759	0.180481	0.0210083	-0.283409	-0.161311	-0.0301475	-0.406847	-0.165469	-0.188728	1.60564	1.19551	-0.00692683	0.09406	-0.0198113	-0.348624	-0.137842	2.00663	1.18024	0.0401855	0.098492
0.200738	-0.0420671	0.0962623	-0.0849378	0.11966	0.987876	-0.00985332	0.469399	-0.201151	-0.0477378	1.30551	0.107435	-0.143543	0.0662416	0.112677	0.0449278	-0.3068	0.666932	0.394249	0.180461	0.0238462	-0.282351	-0.16003	-0.0301189	-0.409846	-0.164066	-0.19119	1.60578	1.19544	-0.00690442	0.0940397	-0.017671	-0.348502	-0.136991	2.00742	1.18056	0.0401559	0.0984737
0.201737	-0.0429344	0.0956274	-0.0851172	0.119712	0.988356	-0.00985933	0.471746	-0.199857	-0.0480463	1.30125	0.107781	-0.142394	0.0662636	0.109935	0.0448551	-0.306546	0.663534	0.390838	0.180427	0.0267047	-0.281294	-0.158741	-0.0300868	-0.412834	-0.162671	-0.193641	1.60595	1.19536	-0.006882	0.0940193	-0.0155655	-0.348361	-0.136144	2.00821	1.18088	0.0401263	0.0984554
0.202736	-0.0437936	0.0949843	-0.0852974	0.119768	0.988844	-0.00986402	0.47404	-0.19855	-0.0483659	1.2969	0.108103	-0.141203	0.066295	0.107176	0.044776	-0.306289	0.660112	0.387358	0.180377	0.0295829	-0.280239	-0.157444	-0.0300513	-0.415811	-0.161283	-0.196082	1.60612	1.19528	-0.00685959	0.0939989	-0.013495	-0.348201	-0.1353	2.00902	1.1812	0.0400967	0.0984371
0.203734	-0.0446445	0.0943335	-0.0854786	0.119828	0.989341	-0.00986741	0.47628	-0.197233	-0.0486963	1.29245	0.1084	-0.139968	0.0663357	0.104402	0.0446909	-0.306027	0.656668	0.383809	0.180312	0.0324793	-0.279186	-0.15614	-0.0300128	-0.418776	-0.159904	-0.198512	1.60632	1.1952	-0.00683717	0.0939785	-0.0114597	-0.348024	-0.13446	2.00983	1.18153	0.0400672	0.0984187
0.204733	-0.0454868	0.0936753	-0.0856606	0.119892	0.989845	-0.00986949	0.478466	-0.195904	-0.0490372	1.2879	0.108671	-0.13869	0.0663855	0.101614	0.0445998	-0.305762	0.653201	0.380193	0.180233	0.0353928	-0.278135	-0.154829	-0.0299714	-0.421729	-0.158533	-0.20093	1.60652	1.19512	-0.00681475	0.0939581	-0.00945972	-0.347828	-0.133623	2.01066	1.18185	0.0400376	0.0984004
0.205732	-0.0463203	0.0930099	-0.0858435	0.119959	0.990357	-0.00987027	0.480599	-0.194565	-0.0493885	1.28326	0.108916	-0.13737	0.0664444	0.0988103	0.044503	-0.305493	0.649713	0.37651	0.180138	0.0383222	-0.277087	-0.153511	-0.0299275	-0.424669	-0.15717	-0.203337	1.60674	1.19504	-0.00679234	0.0939377	-0.0074953	-0.347615	-0.132789	2.01149	1.18218	0.040008	0.0983821
0.20673	-0.0471448	0.0923377	-0.0860272	0.120031	0.990876	-0.00986975	0.482677	-0.193217	-0.0497499	1.27853	0.109136	-0.136007	0.0665121	0.0959929	0.0444007	-0.30522	0.646206	0.37276	0.180028	0.041266	-0.276043	-0.152187	-0.0298813	-0.427596	-0.155816	-0.205731	1.60697	1.19495	-0.00676992	0.0939173	-0.00556653	-0.347385	-0.131959	2.01234	1.18251	0.0399784	0.0983638
0.207729	-0.04796	0.0916589	-0.0862118	0.120105	0.991402	-0.00986795	0.484701	-0.191859	-0.0501212	1.2737	0.10933	-0.1346	0.0665887	0.0931618	0.044293	-0.304944	0.64268	0.368946	0.179904	0.0442229	-0.275002	-0.150857	-0.0298328	-0.430511	-0.154471	-0.208112	1.60722	1.19487	-0.00674751	0.0938969	-0.00367349	-0.347138	-0.131132	2.01319	1.18284	0.0399488	0.0983455
0.208728	-0.0487657	0.0909739	-0.0863971	0.120184	0.991935	-0.00986486	0.48667	-0.190492	-0.0505021	1.26878	0.109498	-0.133151	0.0666739	0.0903173	0.0441801	-0.304664	0.639137	0.365068	0.179764	0.0471917	-0.273964	-0.149522	-0.0297824	-0.433411	-0.153135	-0.210481	1.60748	1.19478	-0.00672509	0.0938765	-0.00181624	-0.346874	-0.130308	2.01405	1.18317	0.0399192	0.0983272
0.209726	-0.0495619	0.090283	-0.0865832	0.120266	0.992475	-0.0098605	0.488585	-0.189117	-0.0508923	1.26377	0.10964	-0.131659	0.0667677	0.08746	0.0440622	-0.30438	0.635578	0.361127	0.17961	0.0501708	-0.272931	-0.148182	-0.0297302	-0.436298	-0.151808	-0.212836	1.60775	1.19469	-0.00670267	0.0938561	5.17432e-06	-0.346593	-0.129486	2.01492	1.1835	0.0398896	0.0983088
0.210725	-0.0503482	0.0895865	-0.0867701	0.120351	0.993022	-0.00985487	0.490446	-0.187734	-0.0512916	1.25867	0.109754	-0.130124	0.0668699	0.0845902	0.0439395	-0.304093	0.632004	0.357124	0.17944	0.0531588	-0.271903	-0.146837	-0.0296763	-0.439171	-0.15049	-0.215179	1.60803	1.1946	-0.00668026	0.0938357	0.00179075	-0.346296	-0.128667	2.0158	1.18384	0.03986	0.0982905
0.211724	-0.0511246	0.0888847	-0.0869577	0.120441	0.993575	-0.00984798	0.492252	-0.186343	-0.0516997	1.25347	0.109842	-0.128546	0.0669803	0.0817085	0.0438121	-0.303803	0.628417	0.35306	0.179256	0.0561544	-0.270879	-0.145488	-0.0296208	-0.442029	-0.149181	-0.217507	1.60832	1.19451	-0.00665784	0.0938153	0.00354049	-0.345983	-0.12785	2.01669	1.18417	0.0398304	0.0982722
0.212722	-0.051891	0.0881779	-0.0871461	0.120533	0.994135	-0.00983984	0.494003	-0.184945	-0.0521164	1.24819	0.109903	-0.126926	0.0670989	0.0788154	0.0436803	-0.303509	0.624818	0.348936	0.179056	0.0591561	-0.26986	-0.144136	-0.0295637	-0.444872	-0.147881	-0.219822	1.60863	1.19442	-0.00663542	0.0937949	0.00525443	-0.345655	-0.127036	2.01759	1.18451	0.0398008	0.0982539
0.213721	-0.0526471	0.0874664	-0.0873351	0.120629	0.9947	-0.00983047	0.4957	-0.183541	-0.0525413	1.24282	0.109937	-0.125263	0.0672255	0.0759113	0.0435441	-0.303212	0.621207	0.344753	0.178841	0.0621622	-0.268847	-0.142779	-0.0295053	-0.447701	-0.146591	-0.222123	1.60895	1.19433	-0.006613	0.0937745	0.00693263	-0.345311	-0.126223	2.0185	1.18485	0.0397713	0.0982355
0.21472	-0.0533929	0.0867505	-0.0875248	0.120729	0.995272	-0.00981987	0.497342	-0.182131	-0.0529741	1.23736	0.109943	-0.123558	0.06736	0.0729969	0.0434038	-0.302911	0.617587	0.340512	0.178612	0.0651714	-0.267839	-0.14142	-0.0294456	-0.450514	-0.14531	-0.224409	1.60927	1.19424	-0.00659059	0.0937541	0.00857516	-0.344952	-0.125412	2.01942	1.18519	0.0397417	0.0982172
0.215718	-0.0541283	0.0860305	-0.0877152	0.120831	0.995849	-0.00980806	0.498931	-0.180714	-0.0534147	1.23182	0.109921	-0.121811	0.0675023	0.0700726	0.0432595	-0.302608	0.613958	0.336215	0.178368	0.0681821	-0.266838	-0.140058	-0.0293845	-0.453312	-0.144039	-0.226681	1.60961	1.19414	-0.00656817	0.0937337	0.0101821	-0.344579	-0.124603	2.02035	1.18553	0.0397121	0.0981989
0.216717	-0.0548532	0.0853067	-0.0879062	0.120937	0.996431	-0.00979505	0.500464	-0.179293	-0.0538626	1.22619	0.109871	-0.120021	0.0676522	0.0671391	0.0431113	-0.302301	0.610322	0.331863	0.178108	0.0711927	-0.265842	-0.138694	-0.0293222	-0.456094	-0.142778	-0.228939	1.60996	1.19405	-0.00654575	0.0937133	0.0117536	-0.344191	-0.123794	2.02128	1.18587	0.0396825	0.0981805
0.217716	-0.0555676	0.0845795	-0.0880978	0.121047	0.997019	-0.00978085	0.501944	-0.177867	-0.0543177	1.22048	0.109793	-0.11819	0.0678095	0.064197	0.0429594	-0.301991	0.60668	0.327456	0.177834	0.0742016	-0.264853	-0.137328	-0.0292587	-0.45886	-0.141527	-0.231182	1.61033	1.19395	-0.00652333	0.0936929	0.0132898	-0.343788	-0.122986	2.02223	1.18622	0.0396529	0.0981622
0.218714	-0.0562712	0.083849	-0.08829	0.121159	0.997612	-0.00976548	0.50337	-0.176436	-0.0547795	1.21468	0.109686	-0.116317	0.0679742	0.0612467	0.042804	-0.301678	0.603033	0.322997	0.177545	0.0772073	-0.26387	-0.13596	-0.029194	-0.46161	-0.140285	-0.23341	1.6107	1.19386	-0.00650092	0.0936725	0.0147907	-0.343373	-0.122179	2.02318	1.18656	0.0396234	0.0981439
0.219713	-0.0569642	0.0831156	-0.0884828	0.121275	0.99821	-0.00974895	0.504742	-0.175002	-0.0552478	1.2088	0.109551	-0.114402	0.068146	0.058289	0.0426452	-0.301363	0.599384	0.318486	0.177242	0.0802082	-0.262894	-0.134591	-0.0291281	-0.464343	-0.139054	-0.235623	1.61108	1.19376	-0.0064785	0.0936521	0.0162567	-0.342943	-0.121371	2.02414	1.18691	0.0395938	0.0981255
0.220712	-0.0576465	0.0823797	-0.088676	0.121394	0.998813	-0.00973128	0.50606	-0.173563	-0.0557224	1.20284	0.109386	-0.112446	0.0683249	0.0553245	0.0424831	-0.301044	0.595732	0.313925	0.176924	0.0832026	-0.261925	-0.13322	-0.029061	-0.467061	-0.137832	-0.237821	1.61147	1.19366	-0.00645608	0.0936317	0.0176878	-0.3425	-0.120564	2.02511	1.18726	0.0395642	0.0981072
0.221711	-0.0583179	0.0816414	-0.0888698	0.121516	0.99942	-0.00971248	0.507325	-0.172122	-0.0562029	1.1968	0.109193	-0.11045	0.0685107	0.0523538	0.0423179	-0.300722	0.59208	0.309314	0.17659	0.0861889	-0.260964	-0.13185	-0.0289926	-0.469761	-0.136621	-0.240004	1.61187	1.19356	-0.00643366	0.0936113	0.0190842	-0.342045	-0.119755	2.02608	1.18761	0.0395346	0.0980889
0.222709	-0.0589786	0.0809011	-0.089064	0.121641	1.00003	-0.00969258	0.508538	-0.170678	-0.0566889	1.19068	0.10897	-0.108412	0.0687033	0.0493775	0.0421496	-0.300398	0.588428	0.304656	0.176243	0.0891654	-0.260009	-0.130479	-0.0289231	-0.472444	-0.13542	-0.242172	1.61228	1.19346	-0.00641124	0.0935909	0.0204461	-0.341577	-0.118946	2.02706	1.18796	0.0395051	0.0980705
